<svg width="25" height="25" viewBox="0 0 25 25" fill="none" xmlns="http://www.w3.org/2000/svg">
<path d="M14.8391 0.6875C15.0177 0.687506 15.1917 0.744206 15.3361 0.849437C15.4804 0.954667 15.5877 1.103 15.6423 1.27306L16.5705 4.157C16.9603 4.34769 17.3332 4.562 17.6893 4.80331L20.6525 4.16544C20.8272 4.12814 21.0093 4.14725 21.1724 4.22003C21.3356 4.29282 21.4714 4.41551 21.5604 4.57044L23.8993 8.61875C23.9886 8.77359 24.0264 8.95279 24.0073 9.13052C23.9882 9.30824 23.9131 9.47531 23.793 9.60763L21.7595 11.852C21.7891 12.2824 21.7891 12.7143 21.7595 13.1446L23.793 15.3924C23.9131 15.5247 23.9882 15.6918 24.0073 15.8695C24.0264 16.0472 23.9886 16.2264 23.8993 16.3813L21.5604 20.4312C21.4712 20.5859 21.3352 20.7082 21.1721 20.7807C21.009 20.8532 20.8271 20.872 20.6525 20.8346L17.6893 20.1967C17.3349 20.4363 16.9603 20.6523 16.5722 20.843L15.6423 23.7269C15.5877 23.897 15.4804 24.0453 15.3361 24.1506C15.1917 24.2558 15.0177 24.3125 14.8391 24.3125H10.1613C9.9827 24.3125 9.80868 24.2558 9.66433 24.1506C9.51998 24.0453 9.41275 23.897 9.35809 23.7269L8.43165 20.8447C8.04288 20.6546 7.6679 20.4375 7.30946 20.195L4.3479 20.8346C4.17319 20.8719 3.99114 20.8527 3.82798 20.78C3.66483 20.7072 3.52899 20.5845 3.44003 20.4296L1.10115 16.3813C1.01184 16.2264 0.974009 16.0472 0.993116 15.8695C1.01222 15.6918 1.08728 15.5247 1.20746 15.3924L3.2409 13.1446C3.21145 12.7154 3.21145 12.2846 3.2409 11.8554L1.20746 9.60763C1.08728 9.47531 1.01222 9.30824 0.993116 9.13052C0.974009 8.95279 1.01184 8.77359 1.10115 8.61875L3.44003 4.56875C3.52923 4.41413 3.66518 4.29179 3.82832 4.21932C3.99145 4.14685 4.17337 4.12798 4.3479 4.16544L7.30946 4.805C7.66721 4.56369 8.04184 4.346 8.43165 4.15531L9.35977 1.27306C9.41426 1.10354 9.52098 0.955608 9.66465 0.850428C9.80833 0.745249 9.98159 0.688218 10.1596 0.6875H14.8374H14.8391ZM14.2215 2.375H10.779L9.82046 5.35681L9.17415 5.67238C8.85642 5.82786 8.54971 6.0049 8.25615 6.20225L7.65878 6.60725L4.59428 5.94575L2.87303 8.92925L4.97396 11.2546L4.92334 11.9701C4.89909 12.323 4.89909 12.677 4.92334 13.0299L4.97396 13.7454L2.86965 16.0708L4.59259 19.0542L7.65709 18.3944L8.25446 18.7978C8.54802 18.9951 8.85474 19.1721 9.17246 19.3276L9.81877 19.6432L10.779 22.625H14.2248L15.1867 19.6415L15.8313 19.3276C16.1487 19.1725 16.4549 18.9955 16.7477 18.7978L17.3433 18.3944L20.4095 19.0542L22.1308 16.0708L20.0282 13.7454L20.0788 13.0299C20.1031 12.6765 20.1031 12.3218 20.0788 11.9684L20.0282 11.2529L22.1325 8.92925L20.4095 5.94575L17.3433 6.60388L16.7477 6.20225C16.4549 6.0045 16.1487 5.82744 15.8313 5.67238L15.1867 5.3585L14.2231 2.375H14.2215ZM12.5002 7.4375C13.8429 7.4375 15.1305 7.97087 16.0799 8.92027C17.0293 9.86967 17.5627 11.1573 17.5627 12.5C17.5627 13.8427 17.0293 15.1303 16.0799 16.0797C15.1305 17.0291 13.8429 17.5625 12.5002 17.5625C11.1576 17.5625 9.86989 17.0291 8.92048 16.0797C7.97108 15.1303 7.43771 13.8427 7.43771 12.5C7.43771 11.1573 7.97108 9.86967 8.92048 8.92027C9.86989 7.97087 11.1576 7.4375 12.5002 7.4375ZM12.5002 9.125C11.6051 9.125 10.7467 9.48058 10.1137 10.1135C9.48079 10.7464 9.12521 11.6049 9.12521 12.5C9.12521 13.3951 9.48079 14.2535 10.1137 14.8865C10.7467 15.5194 11.6051 15.875 12.5002 15.875C13.3953 15.875 14.2538 15.5194 14.8867 14.8865C15.5196 14.2535 15.8752 13.3951 15.8752 12.5C15.8752 11.6049 15.5196 10.7464 14.8867 10.1135C14.2538 9.48058 13.3953 9.125 12.5002 9.125Z" fill="#6A53EA"/>
</svg>
