<svg width="24" height="24" viewBox="0 0 24 24" fill="none" xmlns="http://www.w3.org/2000/svg">
<path d="M21.7278 14.0254L21.7253 14.028L13.1827 22.5839C13.1826 22.584 13.1825 22.5841 13.1824 22.5842C12.9152 22.8505 12.5533 23 12.176 23C11.7985 23 11.4365 22.8504 11.1692 22.5839L1.41483 12.8295C1.4146 12.8293 1.41437 12.829 1.41414 12.8288C1.14976 12.5628 1.00083 12.2033 0.999589 11.8283C1.00043 11.4488 1.14977 11.0847 1.4156 10.8139L9.97006 2.2728L9.97263 2.27021C10.0267 2.21588 10.0977 2.18186 10.1739 2.17385L22.6311 1.0014C22.6314 1.00138 22.6316 1.00135 22.6319 1.00133C22.6804 0.996978 22.7293 1.00332 22.7751 1.01993C22.8211 1.03662 22.8629 1.06326 22.8975 1.09795L22.8975 1.09796L22.9001 1.10057C22.9348 1.13513 22.9614 1.17692 22.9781 1.22296C22.9947 1.26877 23.0011 1.31767 22.9967 1.36619C22.9967 1.36643 22.9967 1.36668 22.9966 1.36692L21.8242 13.8241C21.8162 13.9003 21.7822 13.9714 21.7278 14.0254ZM13.4749 11.0826H13.5507C14.0595 11.4552 14.6768 11.6596 15.315 11.6596C16.1035 11.6596 16.8599 11.3477 17.4193 10.7921L17.4213 10.7902C17.8411 10.3708 18.1272 9.8364 18.2432 9.25447C18.3592 8.67254 18.3001 8.06927 18.0731 7.52098C17.8462 6.97269 17.4618 6.50403 16.9685 6.17428C16.4751 5.84454 15.8951 5.66853 15.3017 5.66853C14.7083 5.66853 14.1283 5.84454 13.6349 6.17428C13.1416 6.50403 12.7572 6.97269 12.5303 7.52098C12.3033 8.06927 12.2442 8.67254 12.3602 9.25447L13.3409 9.05892L12.3602 9.25447C12.4762 9.8364 12.7623 10.3708 13.1821 10.7902L13.4749 11.0826Z" stroke="#6A53EA" stroke-width="2"/>
</svg>
