<svg width="18" height="19" viewBox="0 0 18 19" fill="none" xmlns="http://www.w3.org/2000/svg">
<path d="M5.875 3.25004V1.37378C5.875 1.20802 5.94085 1.04905 6.05806 0.931838C6.17527 0.814628 6.33424 0.748779 6.5 0.748779H11.5C11.6658 0.748779 11.8247 0.814628 11.9419 0.931838C12.0592 1.04905 12.125 1.20802 12.125 1.37378V3.25004H17.125C17.2908 3.25004 17.4497 3.31589 17.5669 3.4331C17.6842 3.55031 17.75 3.70928 17.75 3.87504C17.75 4.0408 17.6842 4.19978 17.5669 4.31699C17.4497 4.4342 17.2908 4.50005 17.125 4.50005H0.875C0.70924 4.50005 0.550268 4.4342 0.433058 4.31699C0.315848 4.19978 0.25 4.0408 0.25 3.87504C0.25 3.70928 0.315848 3.55031 0.433058 3.4331C0.550268 3.31589 0.70924 3.25004 0.875 3.25004H5.875ZM7.125 3.25004H10.875V2.00003H7.125V3.25004ZM2.75 18.2501C2.58424 18.2501 2.42527 18.1843 2.30806 18.0671C2.19085 17.9498 2.125 17.7909 2.125 17.6251V4.50005H15.875V17.6251C15.875 17.7909 15.8092 17.9498 15.6919 18.0671C15.5747 18.1843 15.4158 18.2501 15.25 18.2501H2.75ZM7.125 14.5001C7.29076 14.5001 7.44973 14.4342 7.56694 14.317C7.68415 14.1998 7.75 14.0409 7.75 13.8751V7.62506C7.75 7.4593 7.68415 7.30033 7.56694 7.18312C7.44973 7.06591 7.29076 7.00006 7.125 7.00006C6.95924 7.00006 6.80027 7.06591 6.68306 7.18312C6.56585 7.30033 6.5 7.4593 6.5 7.62506V13.8751C6.5 14.0409 6.56585 14.1998 6.68306 14.317C6.80027 14.4342 6.95924 14.5001 7.125 14.5001ZM10.875 14.5001C11.0408 14.5001 11.1997 14.4342 11.3169 14.317C11.4342 14.1998 11.5 14.0409 11.5 13.8751V7.62506C11.5 7.4593 11.4342 7.30033 11.3169 7.18312C11.1997 7.06591 11.0408 7.00006 10.875 7.00006C10.7092 7.00006 10.5503 7.06591 10.4331 7.18312C10.3158 7.30033 10.25 7.4593 10.25 7.62506V13.8751C10.25 14.0409 10.3158 14.1998 10.4331 14.317C10.5503 14.4342 10.7092 14.5001 10.875 14.5001Z" fill="#6A53EA"/>
</svg>
