<svg width="16" height="16" viewBox="0 0 16 16" fill="none" xmlns="http://www.w3.org/2000/svg">
<path d="M1.49891 15.2918C1.38908 15.2916 1.28048 15.2685 1.18004 15.2241C1.07959 15.1797 0.989485 15.1148 0.915456 15.0337C0.840088 14.9532 0.782577 14.8578 0.746695 14.7535C0.710813 14.6493 0.69737 14.5386 0.707248 14.4288L0.901206 12.2961L9.86129 3.33918L12.6614 6.13852L3.70371 15.0946L1.57096 15.2886C1.54701 15.2908 1.52297 15.2919 1.49891 15.2918V15.2918ZM13.2203 5.57881L10.421 2.77947L12.1001 1.10035C12.1736 1.02674 12.261 0.96835 12.3571 0.92851C12.4532 0.88867 12.5562 0.868164 12.6602 0.868164C12.7643 0.868164 12.8673 0.88867 12.9634 0.92851C13.0595 0.96835 13.1468 1.02674 13.2203 1.10035L14.8995 2.77947C14.9731 2.853 15.0315 2.94031 15.0713 3.03642C15.1111 3.13252 15.1316 3.23554 15.1316 3.33958C15.1316 3.44362 15.1111 3.54663 15.0713 3.64274C15.0315 3.73885 14.9731 3.82616 14.8995 3.89968L13.2211 5.57802L13.2203 5.57881V5.57881Z" fill="#6A53EA"/>
</svg>
