<svg width="26" height="27" viewBox="0 0 26 27" fill="none" xmlns="http://www.w3.org/2000/svg">
<path d="M10.0019 0.5625C6.14618 0.5625 3.00058 3.7081 3.00058 7.56385C3.00058 9.97431 4.23081 12.1147 6.09517 13.378C2.52749 14.9083 0 18.4489 0 22.5667H2.00038C2.00038 18.1359 5.57107 14.5652 10.0019 14.5652C12.1473 14.5652 14.0657 15.4444 15.503 16.8156L10.7831 21.5355L10.7211 21.8476L10.0329 25.3803L9.72087 26.8486L11.1902 26.5365L14.7208 25.8484L15.0339 25.7863L25.1298 15.6904C26.2901 14.5302 26.2901 12.5998 25.1298 11.4396C24.5699 10.8842 23.8149 10.57 23.0262 10.5642C22.2376 10.5584 21.478 10.8615 20.91 11.4086L16.9413 15.3783C16.0595 14.5338 15.0321 13.8561 13.9087 13.378C14.8603 12.7355 15.64 11.8696 16.1795 10.856C16.719 9.84244 17.0019 8.71207 17.0033 7.56385C17.0033 3.7081 13.8577 0.5625 10.0019 0.5625ZM10.0019 2.56288C12.7755 2.56288 15.0029 4.79031 15.0029 7.56385C15.0029 10.3374 12.7755 12.5648 10.0019 12.5648C7.22839 12.5648 5.00096 10.3374 5.00096 7.56385C5.00096 4.79031 7.22839 2.56288 10.0019 2.56288ZM23.0044 12.5648C23.2585 12.5648 23.5245 12.6468 23.7236 12.8459C23.818 12.937 23.8931 13.0462 23.9444 13.167C23.9957 13.2878 24.0221 13.4178 24.0221 13.549C24.0221 13.6802 23.9957 13.8101 23.9444 13.931C23.8931 14.0518 23.818 14.161 23.7236 14.2521L14.0337 23.942L12.2524 24.3171L12.6274 22.5357L22.3173 12.8459C22.4065 12.7545 22.5136 12.6825 22.6317 12.6341C22.7499 12.5858 22.8768 12.5622 23.0044 12.5648Z" fill="#6A53EA"/>
</svg>
