<svg width="68" height="68" viewBox="0 0 68 68" fill="none" xmlns="http://www.w3.org/2000/svg">
<circle cx="34" cy="34" r="34" fill="#6A53EA"/>
<path d="M20.9869 18.4351C20.7934 18.3383 20.5765 18.2978 20.3611 18.3181C20.1456 18.3384 19.9402 18.4188 19.7682 18.5501C19.5961 18.6815 19.4644 18.8584 19.388 19.0609C19.3116 19.2633 19.2935 19.4832 19.3358 19.6954L22.5803 30.9111C22.6408 31.1201 22.759 31.3078 22.9214 31.4526C23.0838 31.5974 23.2838 31.6934 23.4983 31.7297L36.6564 33.9335C37.2762 34.0561 37.2762 34.9441 36.6564 35.0666L23.4983 37.2704C23.2838 37.3067 23.0838 37.4027 22.9214 37.5475C22.759 37.6924 22.6408 37.88 22.5803 38.0891L19.3358 49.3047C19.2935 49.5169 19.3116 49.7368 19.388 49.9392C19.4644 50.1417 19.5961 50.3187 19.7682 50.45C19.9402 50.5813 20.1456 50.6617 20.3611 50.682C20.5765 50.7023 20.7934 50.6618 20.9869 50.565L51.0494 35.5337C51.2412 35.4376 51.4025 35.29 51.5152 35.1075C51.6279 34.9249 51.6876 34.7146 51.6876 34.5001C51.6876 34.2855 51.6279 34.0752 51.5152 33.8927C51.4025 33.7101 51.2412 33.5625 51.0494 33.4664L20.9869 18.4351Z" fill="white"/>
</svg>
