<svg width="36" height="36" viewBox="0 0 36 36" fill="none" xmlns="http://www.w3.org/2000/svg">
<mask id="path-1-inside-1_390_1170" fill="white">
<path d="M7.6614 26.6732C7.47834 26.8324 7.25366 26.9361 7.01374 26.972C6.77383 27.008 6.52864 26.9747 6.30695 26.8762C6.08527 26.7777 5.89629 26.6179 5.76221 26.4158C5.62813 26.2136 5.55451 25.9774 5.55 25.7348V22.875C4.8737 22.875 4.2251 22.6063 3.74688 22.1281C3.26866 21.6499 3 21.0013 3 20.325V11.4C3 10.7237 3.26866 10.0751 3.74688 9.59688C4.2251 9.11866 4.8737 8.85 5.55 8.85H19.575C20.2513 8.85 20.8999 9.11866 21.3781 9.59688C21.8563 10.0751 22.125 10.7237 22.125 11.4V20.325C22.125 21.0013 21.8563 21.6499 21.3781 22.1281C20.8999 22.6063 20.2513 22.875 19.575 22.875H13.2038L7.6614 26.6732ZM23.4 16.5217C23.3959 16.6785 23.3959 16.8353 23.4 16.9921V16.5204C23.4064 16.384 23.4076 14.6755 23.4051 11.3962C23.4041 10.3824 23.0006 9.41046 22.2834 8.69396C21.5662 7.97746 20.5939 7.575 19.5801 7.575H9.375V6.3C9.375 5.6237 9.64366 4.9751 10.1219 4.49688C10.6001 4.01866 11.2487 3.75 11.925 3.75H25.95C26.6263 3.75 27.2749 4.01866 27.7531 4.49688C28.2313 4.9751 28.5 5.6237 28.5 6.3V15.225C28.5 15.9013 28.2313 16.5499 27.7531 17.0281C27.2749 17.5063 26.6263 17.775 25.95 17.775V20.6348C25.9455 20.8774 25.8719 21.1136 25.7378 21.3158C25.6037 21.518 25.4147 21.6777 25.193 21.7762C24.9714 21.8747 24.7262 21.908 24.4863 21.872C24.2463 21.8361 24.0217 21.7324 23.8386 21.5732L23.4 21.2723V16.5217Z"/>
</mask>
<path d="M7.6614 26.6732L6.53081 25.0234L6.43589 25.0885L6.34905 25.164L7.6614 26.6732ZM5.55 25.7348H3.55V25.7534L3.55035 25.772L5.55 25.7348ZM5.55 22.875H7.55V20.875H5.55V22.875ZM3 20.325H1H3ZM3 11.4H1H3ZM5.55 8.85V6.85V8.85ZM19.575 8.85V6.85V8.85ZM13.2038 22.875V20.875H12.5843L12.0732 21.2252L13.2038 22.875ZM23.4 16.5217H25.4L21.4007 16.47L23.4 16.5217ZM23.4 16.9921L21.4007 17.0439L25.4 16.9921H23.4ZM23.4 16.5204L21.4022 16.427L21.4 16.4737V16.5204H23.4ZM23.4051 11.3962L25.4051 11.3946L25.4051 11.3942L23.4051 11.3962ZM19.5801 7.575V9.575H19.5801L19.5801 7.575ZM9.375 7.575H7.375V9.575H9.375V7.575ZM11.925 3.75V1.75V3.75ZM25.95 17.775V15.775H23.95V17.775H25.95ZM25.95 20.6348L27.9497 20.672L27.95 20.6534V20.6348H25.95ZM23.8386 21.5732L25.1509 20.064L25.0645 19.9888L24.97 19.924L23.8386 21.5732ZM23.4 21.2723H21.4V22.3256L22.2686 22.9215L23.4 21.2723ZM6.34905 25.164C6.45314 25.0735 6.5809 25.0145 6.71733 24.9941L7.31016 28.9499C7.92642 28.8576 8.50353 28.5913 8.97375 28.1824L6.34905 25.164ZM6.71733 24.9941C6.85375 24.9737 6.99318 24.9926 7.11923 25.0486L5.49468 28.7038C6.0641 28.9569 6.69391 29.0423 7.31016 28.9499L6.71733 24.9941ZM7.11923 25.0486C7.24528 25.1046 7.35274 25.1954 7.42898 25.3104L4.09544 27.5212C4.43984 28.0405 4.92525 28.4507 5.49468 28.7038L7.11923 25.0486ZM7.42898 25.3104C7.50522 25.4254 7.54709 25.5597 7.54965 25.6976L3.55035 25.772C3.56194 26.3951 3.75104 27.0019 4.09544 27.5212L7.42898 25.3104ZM7.55 25.7348V22.875H3.55V25.7348H7.55ZM5.55 20.875C5.40413 20.875 5.26424 20.817 5.16109 20.7139L2.33266 23.5423C3.18595 24.3956 4.34326 24.875 5.55 24.875V20.875ZM5.16109 20.7139C5.05795 20.6108 5 20.4709 5 20.325H1C1 21.5317 1.47937 22.689 2.33266 23.5423L5.16109 20.7139ZM5 20.325V11.4H1V20.325H5ZM5 11.4C5 11.2541 5.05795 11.1142 5.16109 11.0111L2.33266 8.18266C1.47937 9.03595 1 10.1933 1 11.4H5ZM5.16109 11.0111C5.26424 10.9079 5.40413 10.85 5.55 10.85V6.85C4.34326 6.85 3.18595 7.32937 2.33266 8.18266L5.16109 11.0111ZM5.55 10.85H19.575V6.85H5.55V10.85ZM19.575 10.85C19.7209 10.85 19.8608 10.9079 19.9639 11.0111L22.7923 8.18266C21.939 7.32937 20.7817 6.85 19.575 6.85V10.85ZM19.9639 11.0111C20.0671 11.1142 20.125 11.2541 20.125 11.4H24.125C24.125 10.1933 23.6456 9.03595 22.7923 8.18266L19.9639 11.0111ZM20.125 11.4V20.325H24.125V11.4H20.125ZM20.125 20.325C20.125 20.4709 20.0671 20.6108 19.9639 20.7139L22.7923 23.5423C23.6456 22.689 24.125 21.5317 24.125 20.325H20.125ZM19.9639 20.7139C19.8608 20.817 19.7209 20.875 19.575 20.875V24.875C20.7817 24.875 21.939 24.3956 22.7923 23.5423L19.9639 20.7139ZM19.575 20.875H13.2038V24.875H19.575V20.875ZM12.0732 21.2252L6.53081 25.0234L8.79199 28.323L14.3344 24.5248L12.0732 21.2252ZM21.4007 16.47C21.3957 16.6612 21.3957 16.8526 21.4007 17.0439L25.3993 16.9404C25.3962 16.8181 25.3962 16.6957 25.3993 16.5734L21.4007 16.47ZM25.4 16.9921V16.5204H21.4V16.9921H25.4ZM25.3978 16.6138C25.4071 16.4143 25.4076 14.6196 25.4051 11.3946L21.4051 11.3977C21.4064 13.0372 21.4067 14.2827 21.4059 15.135C21.4055 15.5614 21.4048 15.8876 21.4039 16.1149C21.4028 16.3749 21.4012 16.4476 21.4022 16.427L25.3978 16.6138ZM25.4051 11.3942C25.4036 9.8503 24.7892 8.37018 23.6969 7.27904L20.8699 10.1089C21.2121 10.4507 21.4046 10.9145 21.4051 11.3982L25.4051 11.3942ZM23.6969 7.27904C22.6047 6.1879 21.124 5.575 19.5801 5.575L19.5801 9.575C20.0638 9.575 20.5277 9.76702 20.8699 10.1089L23.6969 7.27904ZM19.5801 5.575H9.375V9.575H19.5801V5.575ZM11.375 7.575V6.3H7.375V7.575H11.375ZM11.375 6.3C11.375 6.15413 11.4329 6.01424 11.5361 5.91109L8.70766 3.08266C7.85437 3.93595 7.375 5.09326 7.375 6.3H11.375ZM11.5361 5.91109C11.6392 5.80795 11.7791 5.75 11.925 5.75V1.75C10.7183 1.75 9.56096 2.22937 8.70766 3.08266L11.5361 5.91109ZM11.925 5.75H25.95V1.75H11.925V5.75ZM25.95 5.75C26.0959 5.75 26.2358 5.80795 26.3389 5.91109L29.1673 3.08266C28.314 2.22937 27.1567 1.75 25.95 1.75V5.75ZM26.3389 5.91109C26.4421 6.01424 26.5 6.15413 26.5 6.3H30.5C30.5 5.09326 30.0206 3.93595 29.1673 3.08266L26.3389 5.91109ZM26.5 6.3V15.225H30.5V6.3H26.5ZM26.5 15.225C26.5 15.3709 26.4421 15.5108 26.3389 15.6139L29.1673 18.4423C30.0206 17.589 30.5 16.4317 30.5 15.225H26.5ZM26.3389 15.6139C26.2358 15.7171 26.0959 15.775 25.95 15.775V19.775C27.1567 19.775 28.314 19.2956 29.1673 18.4423L26.3389 15.6139ZM23.95 17.775V20.6348H27.95V17.775H23.95ZM23.9503 20.5976C23.9529 20.4597 23.9948 20.3254 24.071 20.2104L27.4046 22.4212C27.749 21.9018 27.9381 21.2951 27.9497 20.672L23.9503 20.5976ZM24.071 20.2104C24.1473 20.0954 24.2547 20.0046 24.3808 19.9486L26.0053 23.6038C26.5747 23.3507 27.0602 22.9405 27.4046 22.4212L24.071 20.2104ZM24.3808 19.9486C24.5068 19.8926 24.6463 19.8737 24.7827 19.8941L24.1898 23.8499C24.8061 23.9423 25.4359 23.8569 26.0053 23.6038L24.3808 19.9486ZM24.7827 19.8941C24.9191 19.9145 25.0468 19.9735 25.1509 20.064L22.5263 23.0824C22.9965 23.4913 23.5736 23.7576 24.1898 23.8499L24.7827 19.8941ZM24.97 19.924L24.5314 19.6231L22.2686 22.9215L22.7072 23.2224L24.97 19.924ZM25.4 21.2723V16.5217H21.4V21.2723H25.4Z" fill="#6A53EA" mask="url(#path-1-inside-1_390_1170)"/>
</svg>
