<svg width="17" height="17" viewBox="0 0 17 17" fill="none" xmlns="http://www.w3.org/2000/svg">
<path d="M16.3372 14.8463L16.1577 14.688C15.6486 14.2344 15.203 13.7143 14.833 13.1416C14.4288 12.3513 14.1866 11.4882 14.1205 10.603V7.99579C14.124 6.60542 13.6196 5.26163 12.7022 4.21689C11.7848 3.17215 10.5174 2.49839 9.13826 2.32218V1.64135C9.13826 1.45448 9.06403 1.27527 8.9319 1.14314C8.79976 1.011 8.62055 0.936768 8.43368 0.936768C8.24681 0.936768 8.0676 1.011 7.93546 1.14314C7.80333 1.27527 7.7291 1.45448 7.7291 1.64135V2.33274C6.36229 2.52165 5.11025 3.19949 4.20488 4.24071C3.2995 5.28194 2.80215 6.616 2.80493 7.99579V10.603C2.73883 11.4882 2.49659 12.3513 2.09243 13.1416C1.72873 13.7129 1.29031 14.2329 0.78882 14.688L0.609375 14.8463V16.3347H16.3372V14.8463Z" fill="#6A53EA"/>
</svg>
