<svg width="90" height="90" viewBox="0 0 90 90" fill="none" xmlns="http://www.w3.org/2000/svg">
<path d="M24.8295 9.60999C26.5195 9.60999 27.8895 8.23998 27.8895 6.54999C27.8895 4.86 26.5195 3.48999 24.8295 3.48999C23.1395 3.48999 21.7695 4.86 21.7695 6.54999C21.7695 8.23998 23.1395 9.60999 24.8295 9.60999Z" fill="#E3E7FE"/>
<path d="M83.9704 31.76C85.6439 31.76 87.0004 30.4034 87.0004 28.7299C87.0004 27.0565 85.6439 25.7 83.9704 25.7C82.297 25.7 80.9404 27.0565 80.9404 28.7299C80.9404 30.4034 82.297 31.76 83.9704 31.76Z" stroke="#C4CEFE" stroke-linecap="round" stroke-linejoin="round"/>
<path d="M83.5802 69.68C84.5964 69.68 85.4202 68.8562 85.4202 67.84C85.4202 66.8238 84.5964 66 83.5802 66C82.564 66 81.7402 66.8238 81.7402 67.84C81.7402 68.8562 82.564 69.68 83.5802 69.68Z" fill="#E3E7FE"/>
<path d="M12.0402 86.5101C13.0564 86.5101 13.8802 85.6863 13.8802 84.6701C13.8802 83.6539 13.0564 82.8301 12.0402 82.8301C11.024 82.8301 10.2002 83.6539 10.2002 84.6701C10.2002 85.6863 11.024 86.5101 12.0402 86.5101Z" fill="#E3E7FE"/>
<path d="M9.12 47.8401H3V49.5901H9.12V47.8401Z" fill="#E3E7FE"/>
<path d="M6.94043 51.7799V45.6599H5.19043V51.7799H6.94043Z" fill="#E3E7FE"/>
<path d="M45.7604 84.7401C56.7067 84.7401 65.5804 75.8664 65.5804 64.9201C65.5804 53.9738 56.7067 45.1001 45.7604 45.1001C34.8141 45.1001 25.9404 53.9738 25.9404 64.9201C25.9404 75.8664 34.8141 84.7401 45.7604 84.7401Z" fill="white"/>
<path d="M45.7595 83.1599C55.8332 83.1599 63.9995 74.9936 63.9995 64.9199C63.9995 54.8463 55.8332 46.6799 45.7595 46.6799C35.6859 46.6799 27.5195 54.8463 27.5195 64.9199C27.5195 74.9936 35.6859 83.1599 45.7595 83.1599Z" stroke="#6576FF" stroke-width="2" stroke-linecap="round" stroke-linejoin="round"/>
<path d="M37.5 22.5V43.89C42.9834 41.8161 49.0414 41.8517 54.5 43.99V22.5H37.5Z" fill="#F3F5FF" stroke="#6576FF" stroke-linecap="round"/>
<path d="M20.5 22.5V45.5L27 51.71C29.6975 48.1703 33.336 45.4605 37.5 43.89V22.5H20.5Z" fill="#E3E7FE" stroke="#6576FF" stroke-linecap="round"/>
<path d="M54.5 22.5V44C58.6046 45.6083 62.1787 48.3305 64.82 51.86L71.5 45.49V22.49L54.5 22.5Z" fill="#E3E7FE" stroke="#6576FF" stroke-linecap="round"/>
<path d="M78 14H14C12.8954 14 12 14.8954 12 16V20C12 21.1046 12.8954 22 14 22H78C79.1046 22 80 21.1046 80 20V16C80 14.8954 79.1046 14 78 14Z" stroke="#6576FF" stroke-width="2" stroke-linecap="round" stroke-linejoin="round"/>
<path d="M51.9995 58V67.62C52.0088 67.8948 51.9452 68.1672 51.8152 68.4095C51.6853 68.6519 51.4936 68.8556 51.2595 69L46.5395 71.73C46.3027 71.8679 46.0336 71.9405 45.7595 71.9405C45.4855 71.9405 45.2163 71.8679 44.9795 71.73L40.2495 69C40.0152 68.8635 39.8207 68.6679 39.6856 68.4328C39.5505 68.1976 39.4794 67.9312 39.4795 67.66V62.19C39.4777 61.9171 39.5479 61.6485 39.6831 61.4115C39.8183 61.1744 40.0137 60.9773 40.2495 60.84L44.9995 58.11C45.2068 57.9851 45.4403 57.9101 45.6816 57.891C45.9228 57.8719 46.1652 57.9092 46.3895 58V59.62C46.2065 59.5166 45.9998 59.4622 45.7895 59.4622C45.5793 59.4622 45.3726 59.5166 45.1895 59.62L41.5195 61.74C41.3427 61.8419 41.1949 61.9872 41.0899 62.1622C40.9849 62.3372 40.9263 62.536 40.9195 62.74V67C40.929 67.2033 40.9888 67.4011 41.0935 67.5756C41.1982 67.7501 41.3446 67.8959 41.5195 68L45.1895 70.11C45.3709 70.2183 45.5782 70.2755 45.7895 70.2755C46.0008 70.2755 46.2081 70.2183 46.3895 70.11L49.9995 68.08C50.1776 67.9786 50.3269 67.8336 50.4336 67.6587C50.5403 67.4838 50.6008 67.2847 50.6095 67.08V57.21L51.9995 58Z" fill="#6576FF"/>
<path d="M49.2201 56.4001L47.8001 55.5801V57.2101V65.8001C47.8011 65.8903 47.7786 65.9793 47.7347 66.0582C47.6909 66.1371 47.6273 66.2032 47.5501 66.2501L46.0001 67.1301C45.9223 67.1739 45.8345 67.1969 45.7451 67.1969C45.6558 67.1969 45.568 67.1739 45.4901 67.1301L44.0001 66.2501C43.9211 66.2045 43.8555 66.1389 43.8099 66.0599C43.7643 65.9809 43.7402 65.8913 43.7401 65.8001V64.0001C43.7409 63.9103 43.7654 63.8224 43.8111 63.7452C43.8567 63.6679 43.9219 63.6041 44.0001 63.5601L45.5301 62.6701C45.608 62.6263 45.6958 62.6033 45.7851 62.6033C45.8745 62.6033 45.9623 62.6263 46.0401 62.6701L46.4201 62.8901V61.2901L46.2201 61.1701C46.0888 61.0965 45.9407 61.0579 45.7901 61.0579C45.6396 61.0579 45.4915 61.0965 45.3601 61.1701L42.7601 62.6701C42.6279 62.7452 42.5183 62.8544 42.4427 62.9863C42.367 63.1182 42.3282 63.268 42.3301 63.4201V66.4201C42.3282 66.5721 42.367 66.7219 42.4427 66.8538C42.5183 66.9857 42.6279 67.095 42.7601 67.1701L45.3601 68.6701C45.4898 68.7486 45.6385 68.7901 45.7901 68.7901C45.9418 68.7901 46.0905 68.7486 46.2201 68.6701L48.8101 67.1701C48.9435 67.0954 49.0546 66.9866 49.1319 66.8548C49.2093 66.723 49.2501 66.5729 49.2501 66.4201V58.0001L49.2201 56.4001Z" fill="#6576FF"/>
<path d="M53.4504 58.85V68.26C53.4462 68.5992 53.3513 68.9312 53.1754 69.2213C52.9996 69.5115 52.7492 69.7493 52.4504 69.91L46.6604 73.25C46.3697 73.4166 46.0405 73.5043 45.7054 73.5043C45.3703 73.5043 45.0411 73.4166 44.7504 73.25L39.0004 69.91C38.7016 69.7493 38.4512 69.5115 38.2754 69.2213C38.0995 68.9312 38.0046 68.5992 38.0004 68.26V61.57C38.0046 61.2307 38.0995 60.8987 38.2754 60.6086C38.4512 60.3184 38.7016 60.0807 39.0004 59.92L44.7804 56.58C45.0711 56.4133 45.4003 56.3256 45.7354 56.3256C46.0705 56.3256 46.3997 56.4133 46.6904 56.58L47.7804 57.21V55.58L46.8704 55.05C46.5262 54.8535 46.1367 54.7502 45.7404 54.7502C45.3441 54.7502 44.9546 54.8535 44.6104 55.05L37.7604 59.05C37.4098 59.2511 37.1198 59.543 36.9209 59.8949C36.7221 60.2468 36.6217 60.6458 36.6304 61.05V68.96C36.6238 69.3637 36.7251 69.7619 36.9237 70.1135C37.1224 70.465 37.4112 70.7572 37.7604 70.96L44.6104 74.96C44.9546 75.1564 45.3441 75.2597 45.7404 75.2597C46.1367 75.2597 46.5262 75.1564 46.8704 74.96L53.7104 70.96C54.0596 70.7572 54.3484 70.465 54.5471 70.1135C54.7457 69.7619 54.847 69.3637 54.8404 68.96V59.68L53.4504 58.85Z" fill="#6576FF"/>
</svg>
