<svg width="90" height="90" viewBox="0 0 90 90" fill="none" xmlns="http://www.w3.org/2000/svg">
<path d="M82.0296 29.2901C83.6699 29.2901 84.9996 27.9604 84.9996 26.3201C84.9996 24.6798 83.6699 23.3501 82.0296 23.3501C80.3893 23.3501 79.0596 24.6798 79.0596 26.3201C79.0596 27.9604 80.3893 29.2901 82.0296 29.2901Z" stroke="#C4CEFE" stroke-linecap="round" stroke-linejoin="round"/>
<path d="M79.41 71.29C80.9951 71.29 82.28 70.0051 82.28 68.42C82.28 66.835 80.9951 65.55 79.41 65.55C77.825 65.55 76.54 66.835 76.54 68.42C76.54 70.0051 77.825 71.29 79.41 71.29Z" fill="#E3E7FE"/>
<path d="M14.9798 83.8001C15.9297 83.8001 16.6998 83.03 16.6998 82.0801C16.6998 81.1302 15.9297 80.3601 14.9798 80.3601C14.0298 80.3601 13.2598 81.1302 13.2598 82.0801C13.2598 83.03 14.0298 83.8001 14.9798 83.8001Z" fill="#E3E7FE"/>
<path d="M11.88 34.77H5V37.06H11.88V34.77Z" fill="#E3E7FE"/>
<path d="M9.58984 39.35V32.47H7.29984V39.35H9.58984Z" fill="#E3E7FE"/>
<path d="M39.2096 4.22008L42.8896 5.55008L45.9196 3.33008L45.9696 7.18008L49.1696 9.48008L45.5196 10.5301L44.4696 14.1801L42.1596 10.9801L38.3096 10.9401L40.5396 7.91008L39.2096 4.22008Z" fill="#6576FF"/>
<path d="M29.4099 10.28L31.4099 11L33.0599 9.79004L33.0799 11.88L34.8199 13.14L32.8399 13.71L32.2699 15.69L31.0199 13.95L28.9199 13.93L30.1299 12.28L29.4099 10.28Z" fill="#B3C2FF"/>
<path d="M51.56 9.67011L53.89 10.5201L55.81 9.11011L55.84 11.5401L57.87 13.0001L55.56 13.6701L54.89 15.9801L53.44 13.9501L51 13.9201L52.41 12.0001L51.56 9.67011Z" fill="#B3C2FF"/>
<path d="M49.8904 64.32C49.8978 64.1954 49.8748 64.0709 49.8234 63.9572C49.772 63.8435 49.6937 63.744 49.5953 63.6672C49.4969 63.5905 49.3813 63.5388 49.2585 63.5166C49.1357 63.4945 49.0094 63.5025 48.8904 63.54C47.4377 63.9172 45.9497 64.1417 44.4504 64.21C42.9479 64.1412 41.4565 63.9167 40.0004 63.54C39.8814 63.5025 39.755 63.4945 39.6322 63.5166C39.5094 63.5388 39.3938 63.5905 39.2954 63.6672C39.1971 63.744 39.1188 63.8435 39.0674 63.9572C39.016 64.0709 38.993 64.1954 39.0004 64.32V67.32C39.0004 67.5852 39.1057 67.8395 39.2933 68.0271C39.4808 68.2146 39.7352 68.32 40.0004 68.32H48.8104C49.0756 68.32 49.3299 68.2146 49.5175 68.0271C49.705 67.8395 49.8104 67.5852 49.8104 67.32L49.8904 64.32Z" fill="white" stroke="#6576FF" stroke-width="2" stroke-linecap="round" stroke-linejoin="round"/>
<path d="M58.4298 20.8799H30.9198C30.6433 20.8798 30.3695 20.9349 30.1145 21.042C29.8595 21.149 29.6284 21.3058 29.4347 21.5032C29.241 21.7006 29.0887 21.9346 28.9865 22.1916C28.8844 22.4486 28.8345 22.7234 28.8398 22.9999V40.0999C28.7059 45.0671 30.2999 49.9269 33.3498 53.8499C34.7039 55.5554 36.4256 56.9331 38.3866 57.8801C40.3476 58.8271 42.4972 59.319 44.6748 59.319C46.8525 59.319 49.0021 58.8271 50.963 57.8801C52.924 56.9331 54.6458 55.5554 55.9998 53.8499C59.0497 49.9269 60.6437 45.0671 60.5098 40.0999V22.9999C60.5151 22.7234 60.4653 22.4486 60.3631 22.1916C60.261 21.9346 60.1086 21.7006 59.9149 21.5032C59.7213 21.3058 59.4902 21.149 59.2352 21.042C58.9802 20.9349 58.7064 20.8798 58.4298 20.8799Z" fill="white" stroke="#6576FF" stroke-width="2" stroke-linecap="round" stroke-linejoin="round"/>
<path d="M24.1502 44.8701C21.4402 43.8701 20.1502 41.3601 20.1502 37.2801V27.8001H24.1502V23.8501H18.3102C17.7612 23.8501 17.2347 24.0682 16.8465 24.4564C16.4583 24.8446 16.2402 25.3711 16.2402 25.9201V37.2801C16.2402 44.2101 19.4002 48.4301 25.2402 49.4201C24.7524 47.9379 24.3977 46.4152 24.1802 44.8701H24.1502Z" fill="white" stroke="#6576FF" stroke-width="2" stroke-linecap="round" stroke-linejoin="round"/>
<path d="M28.5 72.92V75.08C28.5 75.31 29.44 75.5 30.6 75.5H58.4C59.56 75.5 60.5 75.31 60.5 75.08V72.92C60.5 72.69 59.56 72.5 58.4 72.5H30.6C29.44 72.5 28.5 72.69 28.5 72.92Z" fill="#6576FF" stroke="#6576FF" stroke-linecap="round" stroke-linejoin="round"/>
<path d="M28.5 78.92V81.08C28.5 81.31 29.44 81.5 30.6 81.5H58.4C59.56 81.5 60.5 81.31 60.5 81.08V78.92C60.5 78.69 59.56 78.5 58.4 78.5H30.6C29.44 78.5 28.5 78.69 28.5 78.92Z" fill="#6576FF" stroke="#6576FF" stroke-linecap="round" stroke-linejoin="round"/>
<path d="M71.6404 23.8501H65.7104V27.8001H69.7104V36.6401C69.7104 40.5301 68.4704 42.8601 65.7104 43.8701C65.4922 45.3432 65.1373 46.7927 64.6504 48.2001C70.4604 47.2601 73.6504 43.2001 73.6504 36.6401V25.8201C73.6504 25.2896 73.4397 24.7809 73.0646 24.4059C72.6895 24.0308 72.1808 23.8201 71.6504 23.8201L71.6404 23.8501Z" fill="white" stroke="#6576FF" stroke-width="2" stroke-linecap="round" stroke-linejoin="round"/>
<path d="M50.5601 33.64V42.64C50.5613 42.8947 50.4954 43.1453 50.369 43.3665C50.2426 43.5877 50.0602 43.7717 49.8401 43.9L45.4001 46.48C45.1796 46.6072 44.9296 46.6742 44.6751 46.6742C44.4205 46.6742 44.1705 46.6072 43.9501 46.48L39.5201 43.92C39.2974 43.7938 39.1124 43.6105 38.984 43.389C38.8557 43.1676 38.7888 42.9159 38.7901 42.66V37.54C38.7888 37.284 38.8557 37.0324 38.984 36.8109C39.1124 36.5894 39.2974 36.4062 39.5201 36.28L44.0001 33.72C44.1982 33.603 44.4217 33.5355 44.6515 33.5233C44.8813 33.5111 45.1106 33.5546 45.3201 33.65V35.17C45.1479 35.0718 44.9532 35.0201 44.7551 35.0201C44.5569 35.0201 44.3622 35.0718 44.1901 35.17L40.7501 37.17C40.5746 37.2699 40.4297 37.4159 40.331 37.5921C40.2323 37.7683 40.1836 37.9681 40.1901 38.17V42.17C40.1847 42.3716 40.2339 42.571 40.3325 42.747C40.431 42.923 40.5753 43.0692 40.7501 43.17L44.1901 45.17C44.3622 45.2682 44.5569 45.3198 44.7551 45.3198C44.9532 45.3198 45.1479 45.2682 45.3201 45.17L48.7601 43.17C48.9348 43.0692 49.0791 42.923 49.1777 42.747C49.2762 42.571 49.3254 42.3716 49.3201 42.17V32.97L50.5601 33.64Z" fill="#6576FF"/>
<path d="M47.9197 32.1101L46.5897 31.3501V32.8801V40.8801C46.5894 40.9649 46.5672 41.0482 46.5251 41.1218C46.4831 41.1954 46.4226 41.2568 46.3497 41.3001L44.9197 42.1301C44.8458 42.1695 44.7634 42.1901 44.6797 42.1901C44.596 42.1901 44.5135 42.1695 44.4397 42.1301L42.9997 41.3501C42.9268 41.3068 42.8663 41.2454 42.8242 41.1718C42.7822 41.0982 42.7599 41.0149 42.7597 40.9301V39.2701C42.7599 39.1853 42.7822 39.102 42.8242 39.0284C42.8663 38.9548 42.9268 38.8934 42.9997 38.8501L44.4397 38.0001C44.5119 37.9559 44.595 37.9325 44.6797 37.9325C44.7644 37.9325 44.8474 37.9559 44.9197 38.0001L45.2697 38.2101V36.7001L45.0797 36.5901C44.9572 36.517 44.8173 36.4784 44.6747 36.4784C44.5321 36.4784 44.3921 36.517 44.2697 36.5901L41.8397 38.0001C41.7165 38.0712 41.6139 38.1731 41.5421 38.2958C41.4702 38.4186 41.4315 38.5579 41.4297 38.7001V41.5001C41.4305 41.6425 41.4688 41.7822 41.5407 41.9051C41.6127 42.028 41.7158 42.1298 41.8397 42.2001L44.2697 43.6101C44.3935 43.6793 44.5329 43.7156 44.6747 43.7156C44.8165 43.7156 44.9559 43.6793 45.0797 43.6101L47.5097 42.2001C47.6335 42.1298 47.7367 42.028 47.8086 41.9051C47.8806 41.7822 47.9189 41.6425 47.9197 41.5001V33.6401V32.1101Z" fill="#6576FF"/>
<path d="M51.8896 34.4099V43.2299C51.8901 43.5448 51.8071 43.8542 51.649 44.1265C51.4909 44.3988 51.2634 44.6242 50.9897 44.7799L45.5696 47.9099C45.2975 48.067 44.9889 48.1497 44.6746 48.1497C44.3604 48.1497 44.0518 48.067 43.7796 47.9099L38.3596 44.7799C38.0859 44.6242 37.8584 44.3988 37.7003 44.1265C37.5422 43.8542 37.4592 43.5448 37.4596 43.2299V36.9999C37.4592 36.685 37.5422 36.3757 37.7003 36.1034C37.8584 35.8311 38.0859 35.6056 38.3596 35.4499L43.7796 32.3199C44.0518 32.1628 44.3604 32.0801 44.6746 32.0801C44.9889 32.0801 45.2975 32.1628 45.5696 32.3199L46.5696 32.9099V31.3499L45.7096 30.8499C45.3892 30.6637 45.0252 30.5657 44.6546 30.5657C44.2841 30.5657 43.9201 30.6637 43.5996 30.8499L37.1996 34.5599C36.8776 34.7447 36.6099 35.0112 36.4238 35.3325C36.2377 35.6538 36.1397 36.0186 36.1396 36.3899V43.8099C36.1397 44.1812 36.2377 44.546 36.4238 44.8673C36.6099 45.1886 36.8776 45.4551 37.1996 45.6399L43.6196 49.3399C43.9401 49.5261 44.3041 49.6242 44.6746 49.6242C45.0452 49.6242 45.4092 49.5261 45.7296 49.3399L52.1497 45.6399C52.4717 45.4551 52.7394 45.1886 52.9255 44.8673C53.1116 44.546 53.2096 44.1812 53.2096 43.8099V35.1899L51.8896 34.4099Z" fill="#6576FF"/>
</svg>
