<svg width="90" height="90" viewBox="0 0 90 90" fill="none" xmlns="http://www.w3.org/2000/svg">
<path d="M81.8002 22.23C81.2286 22.23 80.6698 22.0605 80.1946 21.7429C79.7193 21.4253 79.3489 20.974 79.1301 20.4459C78.9114 19.9178 78.8542 19.3367 78.9657 18.7761C79.0772 18.2155 79.3524 17.7006 79.7566 17.2964C80.1608 16.8922 80.6757 16.617 81.2363 16.5055C81.797 16.394 82.378 16.4512 82.9061 16.6699C83.4342 16.8887 83.8855 17.2591 84.2031 17.7344C84.5207 18.2096 84.6902 18.7684 84.6902 19.34C84.6902 19.7195 84.6154 20.0953 84.4702 20.4459C84.3249 20.7965 84.1121 21.1151 83.8437 21.3835C83.5753 21.6519 83.2567 21.8647 82.9061 22.01C82.5555 22.1552 82.1797 22.23 81.8002 22.23Z" fill="#E3E7FE"/>
<path d="M72.4203 76.1999C74.0164 76.1999 75.3103 74.906 75.3103 73.3099C75.3103 71.7138 74.0164 70.4199 72.4203 70.4199C70.8242 70.4199 69.5303 71.7138 69.5303 73.3099C69.5303 74.906 70.8242 76.1999 72.4203 76.1999Z" stroke="#C4CEFE" stroke-linecap="round" stroke-linejoin="round"/>
<path d="M15.0003 78.12C14.6181 78.12 14.2446 78.0066 13.927 77.794C13.6094 77.5815 13.362 77.2795 13.2163 76.9263C13.0705 76.573 13.0329 76.1844 13.1081 75.8098C13.1834 75.4351 13.3682 75.0913 13.6391 74.8218C13.9101 74.5522 14.2549 74.3692 14.6299 74.2959C15.005 74.2225 15.3933 74.2622 15.7458 74.4098C16.0983 74.5574 16.399 74.8063 16.6099 75.125C16.8208 75.4437 16.9323 75.8179 16.9303 76.2C16.9276 76.7101 16.7231 77.1985 16.3615 77.5583C15.9998 77.9181 15.5104 78.12 15.0003 78.12Z" fill="#E3E7FE"/>
<path d="M14.0003 51.35C13.6186 51.35 13.2455 51.2368 12.9281 51.0247C12.6107 50.8127 12.3633 50.5112 12.2172 50.1586C12.0711 49.8059 12.0329 49.4179 12.1074 49.0435C12.1819 48.6691 12.3657 48.3252 12.6356 48.0553C12.9055 47.7854 13.2494 47.6015 13.6238 47.5271C13.9982 47.4526 14.3862 47.4908 14.7389 47.6369C15.0916 47.783 15.393 48.0304 15.605 48.3477C15.8171 48.6651 15.9303 49.0383 15.9303 49.42C15.9277 49.931 15.7235 50.4204 15.3621 50.7818C15.0007 51.1432 14.5114 51.3474 14.0003 51.35Z" fill="#E3E7FE"/>
<path d="M11.9798 13.1899H6.00977V15.1799H11.9798V13.1899Z" fill="#E3E7FE"/>
<path d="M9.99 11.2H8V17.17H9.99V11.2Z" fill="#E3E7FE"/>
<path d="M74.3002 34.8799L68.3002 26.1199L66.3502 15.6899L47.1602 34.8799H74.3002Z" fill="#E3E7FE"/>
<path d="M42.5398 6.44995L33.7798 12.44L23.3398 14.39L42.5398 33.59V6.44995Z" fill="#E3E7FE"/>
<path d="M14.1602 37.73L20.1502 46.49L22.1102 56.92L41.3002 37.73H14.1602Z" fill="#E3E7FE"/>
<path d="M23.3398 58.6399L33.7798 60.5899L42.5398 66.5899V39.4399L23.3398 58.6399Z" fill="#E3E7FE"/>
<path d="M22.1102 15.6899L20.1502 26.1199L14.1602 34.8799H41.3002L22.1102 15.6899Z" fill="#E3E7FE"/>
<path d="M74.3002 37.8701H47.1602L66.3502 57.0601L68.3002 46.6201L74.3002 37.8701Z" fill="#E3E7FE"/>
<path d="M45.5195 66.5899L54.2795 60.5899L64.7195 58.6399L45.5195 39.4399V66.5899Z" fill="#E3E7FE"/>
<path d="M64.7195 14.39L54.2795 12.44L45.5195 6.44995V33.59L64.7195 14.39Z" fill="#E3E7FE"/>
<path d="M53.8396 62.75L44.0296 69.48L34.2196 62.75H30.5996V85.64H34.2196L44.0296 78.91L53.8396 85.64H57.4696V62.75H53.8396Z" fill="#E3E7FE"/>
<path d="M61.8396 36.5199C61.8396 40.0052 60.806 43.4123 58.8694 46.3101C56.9329 49.2079 54.1804 51.4663 50.9602 52.7996C47.74 54.1329 44.1967 54.4813 40.7784 53.8006C37.3602 53.1199 34.2207 51.4408 31.7569 48.9756C29.2931 46.5104 27.6157 43.3699 26.937 39.9513C26.2582 36.5327 26.6086 32.9896 27.9437 29.7701C29.2789 26.5506 31.5388 23.7995 34.4377 21.8645C37.3367 19.9296 40.7443 18.8979 44.2296 18.8999C46.543 18.8999 48.8338 19.3557 50.971 20.2413C53.1082 21.127 55.0499 22.425 56.6853 24.0613C58.3207 25.6976 59.6176 27.6401 60.502 29.7778C61.3864 31.9155 61.8409 34.2065 61.8396 36.5199Z" fill="white"/>
<path d="M61.8396 36.5199C61.8396 40.0052 60.806 43.4123 58.8694 46.3101C56.9329 49.2079 54.1804 51.4663 50.9602 52.7996C47.74 54.1329 44.1967 54.4813 40.7784 53.8006C37.3602 53.1199 34.2207 51.4408 31.7569 48.9756C29.2931 46.5104 27.6157 43.3699 26.937 39.9513C26.2582 36.5327 26.6086 32.9896 27.9437 29.7701C29.2789 26.5506 31.5388 23.7995 34.4377 21.8645C37.3367 19.9296 40.7443 18.8979 44.2296 18.8999C46.543 18.8999 48.8338 19.3557 50.971 20.2413C53.1082 21.127 55.0499 22.425 56.6853 24.0613C58.3207 25.6976 59.6176 27.6401 60.502 29.7778C61.3864 31.9155 61.8409 34.2065 61.8396 36.5199" stroke="#6576FF" stroke-width="2" stroke-linecap="round" stroke-linejoin="round"/>
<path d="M50.71 30.06V39.0601C50.7074 39.32 50.6344 39.5744 50.4988 39.7963C50.3633 40.0181 50.1702 40.1991 49.94 40.32L45.27 42.87C45.0335 42.9978 44.7689 43.0647 44.5 43.0647C44.2312 43.0647 43.9666 42.9978 43.73 42.87L39.06 40.32C38.8299 40.1991 38.6368 40.0181 38.5012 39.7963C38.3657 39.5744 38.2927 39.32 38.29 39.0601V34C38.2927 33.7401 38.3657 33.4857 38.5012 33.2638C38.6368 33.042 38.8299 32.861 39.06 32.7401L43.73 30.1901C43.9428 30.0729 44.1794 30.0057 44.422 29.9936C44.6645 29.9814 44.9067 30.0247 45.13 30.1201V31.64C44.947 31.542 44.7426 31.4907 44.535 31.4907C44.3274 31.4907 44.123 31.542 43.94 31.64L40.31 33.64C40.1282 33.7351 39.9766 33.8792 39.8724 34.0559C39.7681 34.2326 39.7153 34.4349 39.72 34.64V38.64C39.7153 38.8452 39.7681 39.0475 39.8724 39.2242C39.9766 39.4009 40.1282 39.545 40.31 39.64L43.94 41.64C44.123 41.7381 44.3274 41.7894 44.535 41.7894C44.7426 41.7894 44.947 41.7381 45.13 41.64L48.75 39.64C48.933 39.5454 49.086 39.4018 49.1919 39.2252C49.2979 39.0486 49.3526 38.846 49.35 38.64V29.3L50.71 30.06Z" fill="#6576FF"/>
<path d="M47.9201 28.54L46.5201 27.78V37.33C46.5214 37.415 46.4986 37.4986 46.4543 37.5712C46.4101 37.6437 46.3462 37.7023 46.2701 37.74L44.7501 38.57C44.6741 38.6139 44.5878 38.637 44.5001 38.637C44.4123 38.637 44.3261 38.6139 44.2501 38.57L42.7301 37.74C42.6539 37.7023 42.5901 37.6437 42.5458 37.5712C42.5016 37.4986 42.4788 37.415 42.4801 37.33V35.67C42.4788 35.5851 42.5016 35.5015 42.5458 35.4289C42.5901 35.3563 42.6539 35.2978 42.7301 35.26L44.2501 34.43C44.3261 34.3861 44.4123 34.363 44.5001 34.363C44.5878 34.363 44.6741 34.3861 44.7501 34.43L45.1301 34.63V33.11L44.9301 33C44.7973 32.9308 44.6498 32.8947 44.5001 32.8947C44.3503 32.8947 44.2028 32.9308 44.0701 33L41.5101 34.4C41.3811 34.4661 41.2728 34.5663 41.1969 34.6897C41.1211 34.8132 41.0807 34.9551 41.0801 35.1V37.9C41.0807 38.0449 41.1211 38.1869 41.1969 38.3103C41.2728 38.4338 41.3811 38.534 41.5101 38.6L44.0701 40C44.2028 40.0693 44.3503 40.1054 44.5001 40.1054C44.6498 40.1054 44.7973 40.0693 44.9301 40L47.4901 38.6C47.6177 38.5323 47.7248 38.4317 47.8004 38.3086C47.876 38.1855 47.9173 38.0445 47.9201 37.9V28.54Z" fill="#6576FF"/>
<path d="M52.11 30.83V39.62C52.1019 39.9454 52.0043 40.2622 51.8279 40.5356C51.6515 40.8091 51.4031 41.0286 51.11 41.17L45.39 44.29C45.1006 44.4441 44.7778 44.5247 44.45 44.5247C44.1222 44.5247 43.7994 44.4441 43.51 44.29L37.79 41.17C37.5074 41.0213 37.2707 40.7984 37.1051 40.5254C36.9395 40.2523 36.8513 39.9394 36.85 39.62V33.38C36.8513 33.0607 36.9395 32.7478 37.1051 32.4747C37.2707 32.2017 37.5074 31.9788 37.79 31.83L43.51 28.71C43.7994 28.556 44.1222 28.4754 44.45 28.4754C44.7778 28.4754 45.1006 28.556 45.39 28.71L46.47 29.3V27.78L45.57 27.28C45.2248 27.0979 44.8403 27.0027 44.45 27.0027C44.0597 27.0027 43.6752 27.0979 43.33 27.28L36.62 31C36.2839 31.1736 36.0019 31.436 35.8044 31.7586C35.6069 32.0812 35.5017 32.4518 35.5 32.83V40.21C35.5089 40.5815 35.6175 40.9436 35.8146 41.2586C36.0117 41.5735 36.2899 41.8296 36.62 42L43.38 45.7C43.7252 45.8822 44.1097 45.9774 44.5 45.9774C44.8903 45.9774 45.2748 45.8822 45.62 45.7L52.38 42C52.7161 41.8265 52.9981 41.5641 53.1956 41.2415C53.3931 40.9189 53.4983 40.5483 53.5 40.17V31.6L52.11 30.83Z" fill="#6576FF"/>
</svg>
