<svg xmlns="http://www.w3.org/2000/svg" width="88" height="88" fill="none" viewBox="0 0 88 88">
  <rect width="88" height="88" fill="url(#paint0_linear_124_736)" rx="10"/>
  <path stroke="#fff" stroke-linecap="round" stroke-linejoin="round" stroke-width="3" d="M62 48.003V31.995a3 3 0 00-1.49-2.589l-14.25-8.293a4.494 4.494 0 00-4.522 0L27.49 29.406A3 3 0 0026 31.995v16.008a3 3 0 001.49 2.59l14.25 8.294a4.5 4.5 0 004.522 0l14.25-8.293A3 3 0 0062 48.004zM26.469 30.436L44 40.75m0 0l17.531-10.313M44 40.75v18.75"/>
  <path fill="#fff" d="M44 31.75c1.243 0 2.25-.672 2.25-1.5s-1.007-1.5-2.25-1.5-2.25.672-2.25 1.5 1.007 1.5 2.25 1.5zM39.5 46c.828 0 1.5-1.007 1.5-2.25s-.672-2.25-1.5-2.25-1.5 1.007-1.5 2.25.672 2.25 1.5 2.25zM30.5 49c.828 0 1.5-1.007 1.5-2.25s-.672-2.25-1.5-2.25-1.5 1.007-1.5 2.25.672 2.25 1.5 2.25zM48.5 46c.828 0 1.5-1.007 1.5-2.25s-.672-2.25-1.5-2.25-1.5 1.007-1.5 2.25.672 2.25 1.5 2.25zM57.5 40.75c.828 0 1.5-1.007 1.5-2.25s-.672-2.25-1.5-2.25S56 37.257 56 38.5s.672 2.25 1.5 2.25zM48.5 54.25c.828 0 1.5-1.007 1.5-2.25s-.672-2.25-1.5-2.25S47 50.757 47 52s.672 2.25 1.5 2.25zM57.5 49c.828 0 1.5-1.007 1.5-2.25s-.672-2.25-1.5-2.25-1.5 1.007-1.5 2.25.672 2.25 1.5 2.25z"/>
  <defs>
    <linearGradient id="paint0_linear_124_736" x1="0" x2="82.5" y1="10.5" y2="83.5" gradientUnits="userSpaceOnUse">
      <stop stop-color="#009FFF"/>
      <stop offset="1" stop-color="#89216B"/>
      <stop offset="1" stop-color="#EC2F4B"/>
    </linearGradient>
  </defs>
</svg>
