<svg xmlns="http://www.w3.org/2000/svg" width="88" height="88" fill="none" viewBox="0 0 88 88">
  <rect width="88" height="88" fill="url(#paint0_linear_124_737)" rx="10"/>
  <path stroke="#fff" stroke-linecap="round" stroke-linejoin="round" stroke-width="3" d="M63 50.003V33.995a3 3 0 00-1.49-2.589l-14.25-8.293a4.494 4.494 0 00-4.522 0L28.49 31.406A3 3 0 0027 33.995v16.008a3 3 0 001.49 2.59l14.25 8.294a4.5 4.5 0 004.522 0l14.25-8.293A3 3 0 0063 50.004zM27.469 32.437L45 42.748m0 0l17.531-10.313M45 42.75v18.75"/>
  <path fill="#fff" d="M45 33.75c1.243 0 2.25-.672 2.25-1.5s-1.007-1.5-2.25-1.5-2.25.672-2.25 1.5 1.007 1.5 2.25 1.5zM40.5 48c.828 0 1.5-1.007 1.5-2.25s-.672-2.25-1.5-2.25-1.5 1.007-1.5 2.25.672 2.25 1.5 2.25zM31.5 51c.828 0 1.5-1.007 1.5-2.25s-.672-2.25-1.5-2.25-1.5 1.007-1.5 2.25.672 2.25 1.5 2.25zM49.5 48c.828 0 1.5-1.007 1.5-2.25s-.672-2.25-1.5-2.25-1.5 1.007-1.5 2.25.672 2.25 1.5 2.25zM58.5 42.75c.828 0 1.5-1.007 1.5-2.25s-.672-2.25-1.5-2.25S57 39.257 57 40.5s.672 2.25 1.5 2.25zM49.5 56.25c.828 0 1.5-1.007 1.5-2.25s-.672-2.25-1.5-2.25S48 52.757 48 54s.672 2.25 1.5 2.25zM58.5 51c.828 0 1.5-1.007 1.5-2.25s-.672-2.25-1.5-2.25-1.5 1.007-1.5 2.25.672 2.25 1.5 2.25z"/>
  <defs>
    <linearGradient id="paint0_linear_124_737" x1="0" x2="82.5" y1="10.5" y2="83.5" gradientUnits="userSpaceOnUse">
      <stop stop-color="#DA4453"/>
      <stop offset="1" stop-color="#89216B"/>
    </linearGradient>
  </defs>
</svg>
