<svg width="17" height="17" viewBox="0 0 17 17" fill="none" xmlns="http://www.w3.org/2000/svg">
<path d="M11.7693 0.122968C12.4449 0.115324 13.1154 0.241804 13.7419 0.495085C14.3683 0.748366 14.9383 1.12341 15.4188 1.59851C15.8993 2.07361 16.2808 2.63931 16.5411 3.26286C16.8015 3.88641 16.9355 4.55542 16.9355 5.23114C16.9355 5.90686 16.8015 6.57587 16.5411 7.19942C16.2808 7.82297 15.8993 8.38868 15.4188 8.86377C14.9383 9.33887 14.3683 9.71392 13.7419 9.9672C13.1154 10.2205 12.4449 10.347 11.7693 10.3393C10.4144 10.3393 9.11503 9.8011 8.157 8.84307C7.19897 7.88504 6.66076 6.58567 6.66076 5.23082C6.66076 3.87596 7.19897 2.57659 8.157 1.61856C9.11503 0.66053 10.4144 0.122314 11.7693 0.122314V0.122968ZM13.4039 1.89947C13.181 1.89904 12.9602 1.94264 12.7541 2.02776C12.5481 2.11288 12.361 2.23786 12.2034 2.39551C12.0458 2.55316 11.9209 2.74038 11.8358 2.94643C11.7508 3.15248 11.7073 3.37329 11.7078 3.5962C11.7072 3.8191 11.7506 4.03992 11.8357 4.24597C11.9207 4.45202 12.0456 4.63924 12.2032 4.79685C12.3608 4.95447 12.548 5.07938 12.7541 5.1644C12.9601 5.24942 13.181 5.29288 13.4039 5.29228C13.6268 5.29288 13.8476 5.24942 14.0536 5.1644C14.2597 5.07938 14.4469 4.95447 14.6045 4.79685C14.7621 4.63924 14.887 4.45202 14.9721 4.24597C15.0571 4.03992 15.1006 3.8191 15.0999 3.5962C15.1004 3.37335 15.0568 3.1526 14.9717 2.94663C14.8866 2.74066 14.7617 2.55351 14.6041 2.39593C14.4466 2.23835 14.2594 2.11343 14.0534 2.02835C13.8475 1.94327 13.6267 1.89969 13.4039 1.90012V1.89947ZM6.1501 7.60035C6.32952 8.01972 6.55588 8.4174 6.82487 8.78578L1.71638 13.8936C1.60896 14.0025 1.54874 14.1493 1.54874 14.3023C1.54874 14.4552 1.60896 14.602 1.71638 14.7109C1.82543 14.818 1.97218 14.878 2.12503 14.878C2.27788 14.878 2.42463 14.818 2.53368 14.7109L7.58072 9.64362C8.21809 10.2474 8.97748 10.7076 9.80772 10.9932V11.8922C9.80772 12.1799 9.56514 12.4231 9.27614 12.4231H7.84618V13.8537C7.84618 14.1414 7.6036 14.3847 7.3146 14.3847H5.88464V15.8153C5.88464 16.103 5.64141 16.3462 5.35307 16.3462H3.90284L3.53472 16.7143C3.31111 16.9373 1.07103 17.0491 0.510685 16.4894C-0.0496616 15.9284 0.0634537 13.6883 0.286415 13.4654L6.1501 7.60101V7.60035Z" fill="#6A53EA"/>
</svg>
